<svg width="431" height="381" viewBox="0 0 431 381" fill="none" xmlns="http://www.w3.org/2000/svg">
<g filter="url(#filter0_d)">
<path fill-rule="evenodd" clip-rule="evenodd" d="M389.811 103.906C389.811 115.173 388.017 126.022 384.7 136.182C380.24 149.843 383.722 165.738 393.821 175.961C414.336 196.727 427 225.264 427 256.76C427 320.258 375.525 371.733 312.028 371.733C296.926 371.733 282.505 368.821 269.294 363.529C255.608 358.046 238.882 361.855 225.574 368.2C219.169 371.253 212.001 372.962 204.433 372.962C192.188 372.962 180.987 368.487 172.378 361.084C161.301 351.557 146.335 343.587 131.814 345.201C127.598 345.669 123.313 345.91 118.972 345.91C55.4749 345.91 4 294.435 4 230.938C4 198.69 17.2763 169.543 38.6613 148.665C47.8728 139.672 51.6178 125.995 49.7927 113.251C49.2703 109.604 49 105.875 49 102.083C49 58.9589 83.9589 24 127.083 24C137.874 24 148.154 26.1892 157.503 30.1477C176.079 38.0126 204.659 36.0786 220.293 23.3322C238.183 8.74627 261.023 0 285.906 0C343.291 0 389.811 46.5201 389.811 103.906Z" fill="url(#paint0_linear)"/>
</g>
<mask id="mask0" style="mask-type:alpha" maskUnits="userSpaceOnUse" x="4" y="0" width="423" height="373">
<path fill-rule="evenodd" clip-rule="evenodd" d="M389.811 103.906C389.811 115.173 388.017 126.022 384.7 136.182C380.24 149.843 383.722 165.738 393.821 175.961C414.336 196.727 427 225.264 427 256.76C427 320.258 375.525 371.733 312.028 371.733C296.926 371.733 282.505 368.821 269.294 363.529C255.608 358.046 238.882 361.855 225.574 368.2C219.169 371.253 212.001 372.962 204.433 372.962C192.188 372.962 180.987 368.487 172.378 361.084C161.301 351.557 146.335 343.587 131.814 345.201C127.598 345.669 123.313 345.91 118.972 345.91C55.4749 345.91 4 294.435 4 230.938C4 198.69 17.2763 169.543 38.6613 148.665C47.8728 139.672 51.6178 125.995 49.7927 113.251C49.2703 109.604 49 105.875 49 102.083C49 58.9589 83.9589 24 127.083 24C137.874 24 148.154 26.1892 157.503 30.1477C176.079 38.0126 204.659 36.0786 220.293 23.3322C238.183 8.74627 261.023 0 285.906 0C343.291 0 389.811 46.5201 389.811 103.906Z" fill="url(#paint1_linear)"/>
</mask>
<g mask="url(#mask0)">
<path d="M482.096 132.177C466.286 115.285 441.73 110.072 409.102 116.676C405.693 116.78 379.555 117.284 361.791 109.352C361.576 109.256 361.356 109.176 361.13 109.111C360.452 108.919 344.714 104.616 324.578 115.124C316.506 113.65 285.187 109.754 258.838 131.493C231.891 153.726 219.53 194.858 222.1 253.744C222.932 265.173 225.382 276.427 229.374 287.17C238.149 310.872 253.313 327.539 273.226 335.369C274.27 335.779 275.422 335.823 276.493 335.493C277.565 335.164 278.494 334.481 279.126 333.556L293.108 313.114C293.85 312.029 294.13 310.695 293.888 309.404C293.646 308.112 292.9 306.971 291.816 306.229C291.722 306.164 282.318 299.653 274.315 287.366C264.203 271.842 261.046 254.742 264.913 236.495L290.546 231.684L291.377 250.721C291.431 251.973 291.959 253.158 292.853 254.036C293.746 254.915 294.939 255.422 296.192 255.456C296.612 255.466 305.079 255.644 316.23 252.175L317.874 289.855C313.676 291.142 310.024 293.786 307.489 297.372C304.954 300.958 303.679 305.282 303.866 309.669L304.513 324.515C304.571 325.827 305.147 327.063 306.115 327.951C307.083 328.838 308.365 329.305 309.678 329.248L364.11 326.872C365.423 326.815 366.659 326.239 367.546 325.27C368.433 324.301 368.899 323.02 368.842 321.708L366 256.584C376.404 261.177 396.447 265.674 427.922 255.59C431.377 261.176 438.464 271.542 446.195 276.493L446.506 283.614C441.258 283.849 436.318 286.156 432.769 290.028C429.22 293.901 427.353 299.023 427.576 304.271L428.224 319.117C428.281 320.429 428.857 321.665 429.826 322.552C430.794 323.44 432.075 323.906 433.388 323.849L487.82 321.474C489.067 321.42 490.247 320.897 491.125 320.009C492.003 319.122 492.514 317.936 492.555 316.689L494.677 252.712C498.402 237.875 500.722 222.721 501.604 207.45C501.969 200.864 502.018 194.611 501.751 188.689C505.228 201.679 508.186 220.095 509.323 246.168C509.381 247.481 509.957 248.716 510.925 249.603C511.894 250.491 513.175 250.958 514.488 250.9C515.8 250.843 517.036 250.267 517.923 249.298C518.811 248.329 519.277 247.049 519.22 245.736C516.634 186.465 504.863 162.719 495.024 153.301C492.116 145.492 487.726 138.319 482.096 132.177ZM484.97 250.668C484.866 251.042 484.808 251.428 484.795 251.816L482.806 311.776L437.904 313.736L437.472 303.839C437.361 301.215 438.295 298.654 440.069 296.718C441.844 294.782 444.314 293.628 446.937 293.511L451.886 293.295C453.198 293.237 454.434 292.661 455.322 291.692C456.209 290.724 456.676 289.443 456.618 288.131L455.97 273.286C455.93 272.367 455.635 271.477 455.118 270.716C454.601 269.955 453.882 269.354 453.042 268.979C446.792 266.187 438.338 254.148 434.478 247.217C433.912 246.197 433.004 245.408 431.913 244.994C430.823 244.578 429.621 244.561 428.52 244.945C415.475 249.487 396.293 254.117 378.988 250.387C368.804 248.19 364.012 244.053 364.002 244.045C363.279 243.384 362.376 242.951 361.409 242.802C360.441 242.653 359.45 242.795 358.562 243.209C357.674 243.622 356.929 244.29 356.421 245.128C355.912 245.965 355.664 246.935 355.707 247.914L358.73 317.191L314.194 319.134L313.762 309.238C313.651 306.614 314.585 304.053 316.359 302.117C318.133 300.18 320.603 299.027 323.227 298.909C324.54 298.852 325.776 298.275 326.663 297.307C327.55 296.338 328.016 295.058 327.959 293.745L325.98 248.389C358.218 233.573 369.024 210.015 372.37 192.593C376.087 173.237 371.614 157.474 371.421 156.814C371.234 156.168 370.916 155.567 370.489 155.047C370.061 154.528 369.533 154.101 368.935 153.793L338.141 137.934C335.967 136.811 333.549 136.244 331.102 136.283C328.656 136.321 326.257 136.965 324.119 138.156L309.391 146.342C308.254 146.985 307.417 148.053 307.064 149.311C306.71 150.569 306.867 151.916 307.502 153.058C308.138 154.201 309.198 155.046 310.454 155.41C311.709 155.773 313.057 155.626 314.204 155L328.931 146.815C329.643 146.418 330.443 146.204 331.259 146.191C332.075 146.178 332.881 146.367 333.606 146.741L362.376 161.557C364.365 171.298 364.428 181.334 362.565 191.101C358.112 213.615 343.44 230.29 318.956 240.661C313.236 243.032 307.209 244.585 301.055 245.273L299.331 205.753C299.274 204.441 298.697 203.204 297.729 202.317C296.76 201.429 295.478 200.964 294.167 201.021C292.854 201.078 291.618 201.654 290.73 202.622C289.843 203.591 289.376 204.872 289.433 206.185L290.11 221.687L259.909 227.354C258.981 227.528 258.121 227.965 257.432 228.613C256.743 229.26 256.253 230.09 256.022 231.007C249.029 258.643 257.595 279.848 266.014 292.772C270.538 299.707 276.028 305.96 282.317 311.346L273.251 324.598C257.687 317.284 246.096 303.642 238.757 283.988C235.092 274.126 232.815 263.801 231.996 253.312C230.674 223.006 233.468 197.472 240.301 177.425C245.883 161.048 254.209 148.191 265.045 139.215C278.944 127.702 294.791 124.457 306.588 123.942C312.486 123.627 318.399 124.032 324.199 125.15C325.404 125.439 326.674 125.264 327.757 124.662C343.753 115.771 356.156 118.107 358.149 118.57C379.176 127.785 408.653 126.615 409.906 126.56C410.167 126.549 410.427 126.517 410.684 126.464C439.9 120.475 461.492 124.669 474.854 138.936C506.023 172.217 485.191 249.859 484.97 250.668Z" fill="#73A5DF" fill-opacity="0.8"/>
<path d="M283.405 181.659C286.139 181.539 288.257 179.227 288.138 176.494C288.019 173.761 285.707 171.643 282.974 171.762C280.241 171.881 278.122 174.193 278.241 176.926C278.36 179.659 280.673 181.778 283.405 181.659Z" fill="#73A5DF" fill-opacity="0.8"/>
</g>
<defs>
<filter id="filter0_d" x="0" y="0" width="431" height="380.962" filterUnits="userSpaceOnUse" color-interpolation-filters="sRGB">
<feFlood flood-opacity="0" result="BackgroundImageFix"/>
<feColorMatrix in="SourceAlpha" type="matrix" values="0 0 0 0 0 0 0 0 0 0 0 0 0 0 0 0 0 0 127 0" result="hardAlpha"/>
<feOffset dy="4"/>
<feGaussianBlur stdDeviation="2"/>
<feComposite in2="hardAlpha" operator="out"/>
<feColorMatrix type="matrix" values="0 0 0 0 0 0 0 0 0 0 0 0 0 0 0 0 0 0 0.25 0"/>
<feBlend mode="normal" in2="BackgroundImageFix" result="effect1_dropShadow"/>
<feBlend mode="normal" in="SourceGraphic" in2="effect1_dropShadow" result="shape"/>
</filter>
<linearGradient id="paint0_linear" x1="380.888" y1="49.564" x2="30.4375" y2="326.85" gradientUnits="userSpaceOnUse">
<stop stop-color="#3672B8"/>
<stop offset="1" stop-color="#195397"/>
</linearGradient>
<linearGradient id="paint1_linear" x1="380.888" y1="49.564" x2="30.4375" y2="326.85" gradientUnits="userSpaceOnUse">
<stop stop-color="#3672B8"/>
<stop offset="1" stop-color="#195397"/>
</linearGradient>
</defs>
</svg>
