<svg width="499" height="500" viewBox="0 0 499 500" fill="none" xmlns="http://www.w3.org/2000/svg">
<path d="M404.599 442.471C405.467 443.545 407.042 443.713 408.107 442.834C436.185 419.667 458.873 390.641 474.575 357.778C490.636 324.163 498.981 287.383 499 250.127C499.019 212.872 490.711 176.084 474.684 142.452C458.658 108.821 435.317 79.196 406.369 55.7448C377.421 32.2936 343.597 15.6086 307.372 6.91004C271.146 -1.78858 233.435 -2.28094 196.995 5.46895C160.554 13.2188 126.307 29.015 96.7565 51.7025C67.8673 73.8822 44.1813 102.1 27.3456 134.374C26.707 135.598 27.1978 137.104 28.4283 137.731V137.731C29.6588 138.357 31.163 137.866 31.8018 136.642C48.2994 105.032 71.5032 77.3944 99.8014 55.6684C128.761 33.4347 162.323 17.9545 198.035 10.3596C233.746 2.76468 270.703 3.2472 306.204 11.7718C341.705 20.2965 374.852 36.6477 403.221 59.6299C431.59 82.612 454.464 111.644 470.171 144.603C485.877 177.562 494.019 213.615 494 250.125C493.981 286.635 485.803 322.679 470.063 355.622C454.683 387.813 432.462 416.247 404.963 438.945C403.899 439.824 403.731 441.398 404.599 442.471V442.471Z" fill="#495E95"/>
</svg>
