<svg width="423" height="373" viewBox="0 0 423 373" fill="none" xmlns="http://www.w3.org/2000/svg">
<path fill-rule="evenodd" clip-rule="evenodd" d="M385.811 103.906C385.811 115.173 384.017 126.022 380.7 136.182C376.24 149.843 379.722 165.738 389.821 175.961C410.336 196.727 423 225.264 423 256.76C423 320.258 371.525 371.733 308.028 371.733C292.926 371.733 278.505 368.821 265.294 363.529C251.608 358.046 234.882 361.855 221.574 368.2C215.169 371.253 208.001 372.962 200.433 372.962C188.188 372.962 176.987 368.487 168.378 361.084C157.301 351.557 142.335 343.587 127.814 345.201C123.598 345.669 119.313 345.91 114.972 345.91C51.4749 345.91 0 294.435 0 230.938C0 198.69 13.2763 169.543 34.6613 148.665C43.8728 139.672 47.6178 125.995 45.7927 113.251C45.2703 109.604 45 105.875 45 102.083C45 58.9589 79.9589 24 123.083 24C133.874 24 144.154 26.1892 153.503 30.1477C172.079 38.0126 200.659 36.0786 216.293 23.3322C234.183 8.74627 257.023 0 281.906 0C339.291 0 385.811 46.5201 385.811 103.906Z" fill="url(#paint0_linear)"/>
<defs>
<linearGradient id="paint0_linear" x1="376.888" y1="49.564" x2="26.4375" y2="326.85" gradientUnits="userSpaceOnUse">
<stop stop-color="#3672B8"/>
<stop offset="1" stop-color="#195397"/>
</linearGradient>
</defs>
</svg>
