<svg width="68" height="67" viewBox="0 0 68 67" fill="none" xmlns="http://www.w3.org/2000/svg">
<path d="M31.3829 2.66816C33.2221 1.62217 35.4762 1.62217 37.3153 2.66816L60.3272 15.7558C62.2026 16.8224 63.361 18.8138 63.361 20.9713V46.9911C63.361 49.1486 62.2026 51.14 60.3272 52.2066L37.3153 65.2942C35.4762 66.3402 33.2221 66.3402 31.3829 65.2942L8.37104 52.2066C6.49563 51.14 5.33727 49.1486 5.33727 46.9911V20.9713C5.33727 18.8138 6.49563 16.8224 8.37104 15.7558L31.3829 2.66816Z" fill="url(#paint0_linear)"/>
<path d="M33.8491 13.9812C22.857 13.9812 13.8491 23.0672 13.8491 34.0593C13.8491 44.9876 22.7749 53.9812 33.8491 53.9812C44.9096 53.9812 53.8491 45.0011 53.8491 34.0593C53.8491 23.0672 44.8412 13.9812 33.8491 13.9812ZM37.3647 51.2859C36.2399 51.5202 35.0445 51.6374 33.8491 51.6374C32.6537 51.6374 31.4584 51.5202 30.3335 51.2859V45.8015C30.3335 44.489 30.6851 44.0202 31.1538 43.3873C31.3925 43.1145 31.5365 42.8697 32.6068 41.2547L30.8022 40.9734C26.1614 40.2937 24.3334 37.8795 23.6068 36.0045C22.6693 33.4969 23.1616 30.356 24.8492 28.3641C25.1071 28.0592 25.3179 27.5435 25.1306 27.0045C24.7787 25.9264 24.8257 24.2155 25.0601 23.5591C26.3027 23.7367 27.5805 24.6269 28.6462 25.2702C29.1372 25.5568 29.3948 25.4811 29.6304 25.5046C30.4867 25.3264 31.8224 24.8952 33.8726 24.8952C35.1382 24.8952 36.4742 25.0826 37.7868 25.4576C38.0215 25.4521 38.3987 25.6517 39.0524 25.2702C40.1663 24.5915 41.4007 23.7318 42.6382 23.5591C42.8726 24.2155 42.9196 25.9264 42.568 27.0045C42.3803 27.5435 42.5912 28.0592 42.8494 28.3641C44.5367 30.3563 45.0289 33.4969 44.0914 36.0045C43.3648 37.8795 41.5368 40.2937 36.896 40.9734L35.0915 41.2547C36.1978 42.924 36.3143 43.1242 36.5447 43.3873C37.0132 44.0202 37.3647 44.489 37.3647 45.8015V51.2859ZM39.7085 50.6062V45.8015C39.7085 44.4655 39.4271 43.575 39.0521 42.9185C42.6147 41.9579 45.1461 39.8482 46.271 36.8248C47.4664 33.6375 46.9274 29.8405 44.9349 27.2154C45.2868 25.6453 45.2868 23.1374 44.443 21.9655C44.0679 21.45 43.5522 21.1687 42.8961 21.1687C42.8726 21.1687 42.8726 21.1687 42.8726 21.1687C41.0552 21.2669 39.6249 22.1822 38.0914 23.1139C36.6851 22.7388 35.2554 22.5514 33.8256 22.5514C32.3727 22.5514 30.9194 22.7623 29.6307 23.1139C28.0163 22.1404 26.5997 21.2645 24.732 21.1687C24.1461 21.1687 23.6303 21.45 23.2552 21.9655C22.4117 23.1374 22.4117 25.6453 22.7633 27.2154C20.7708 29.8405 20.2319 33.6607 21.4272 36.8248C22.5521 39.8482 25.0836 41.9579 28.6462 42.9185C28.3553 43.4273 28.1252 44.0837 28.0346 44.9721C27.315 45.2202 26.6909 45.3011 26.1105 45.1305C25.4983 44.9495 25.0213 44.5409 24.6069 43.8438C23.6761 42.2801 22.0907 41.0036 20.2856 41.1696L20.4916 43.5042C21.3275 43.4276 22.1594 44.312 22.5915 45.041C23.3044 46.2416 24.2648 47.029 25.4467 47.3781C26.3241 47.6366 27.1261 47.6305 27.9897 47.4461V50.6062C21.1694 48.2155 16.1929 41.7 16.1929 34.0593C16.1929 24.3562 24.1461 16.3249 33.8491 16.3249C43.5522 16.3249 51.5054 24.3562 51.5054 34.0593C51.5054 41.7 46.5289 48.2155 39.7085 50.6062Z" fill="#D1D1D1"/>
<defs>
<linearGradient id="paint0_linear" x1="-18.2325" y1="85.6016" x2="66.7235" y2="10.0886" gradientUnits="userSpaceOnUse">
<stop stop-color="#2E9B8E"/>
<stop offset="1" stop-color="#8E328B"/>
</linearGradient>
</defs>
</svg>
