<svg width="431" height="381" viewBox="0 0 431 381" fill="none" xmlns="http://www.w3.org/2000/svg">
<g filter="url(#filter0_d)">
<path fill-rule="evenodd" clip-rule="evenodd" d="M389.811 103.906C389.811 115.173 388.017 126.022 384.7 136.182C380.24 149.843 383.722 165.738 393.821 175.961C414.336 196.727 427 225.264 427 256.76C427 320.258 375.525 371.733 312.028 371.733C296.926 371.733 282.505 368.821 269.294 363.529C255.608 358.046 238.882 361.855 225.574 368.2C219.169 371.253 212.001 372.962 204.433 372.962C192.188 372.962 180.987 368.487 172.378 361.084C161.301 351.557 146.335 343.587 131.814 345.201C127.598 345.669 123.313 345.91 118.972 345.91C55.4749 345.91 4 294.435 4 230.938C4 198.69 17.2763 169.543 38.6613 148.665C47.8728 139.672 51.6178 125.995 49.7927 113.251C49.2703 109.604 49 105.875 49 102.083C49 58.9589 83.9589 24 127.083 24C137.874 24 148.154 26.1892 157.503 30.1477C176.079 38.0126 204.659 36.0786 220.293 23.3322C238.183 8.74627 261.023 0 285.906 0C343.291 0 389.811 46.5201 389.811 103.906Z" fill="url(#paint0_linear)"/>
<path fill-rule="evenodd" clip-rule="evenodd" d="M418.011 301.396L353.186 357.824C353.005 357.979 352.8 358.1 352.594 358.222L352.534 358.257C352.497 358.278 352.461 358.304 352.425 358.33C352.38 358.364 352.334 358.397 352.283 358.422C351.637 358.735 350.922 358.875 350.206 358.83C350.134 358.825 350.064 358.808 349.995 358.79C349.95 358.779 349.905 358.769 349.861 358.761C349.815 358.754 349.769 358.747 349.722 358.74C349.527 358.712 349.329 358.683 349.138 358.619L240.773 321.682C240.085 321.448 239.471 321.037 238.992 320.49C238.513 319.943 238.187 319.279 238.047 318.566L205.301 151.826C205.23 151.461 205.211 151.097 205.234 150.734C205.238 150.665 205.256 150.597 205.274 150.528C205.288 150.475 205.302 150.421 205.309 150.367C205.314 150.338 205.318 150.31 205.322 150.281C205.351 150.081 205.381 149.88 205.444 149.688C205.476 149.595 205.524 149.51 205.572 149.425C205.6 149.375 205.628 149.325 205.652 149.274C205.671 149.233 205.689 149.192 205.707 149.151C205.771 149.006 205.835 148.863 205.919 148.732C205.981 148.641 206.059 148.56 206.138 148.479C206.18 148.436 206.221 148.394 206.26 148.349C206.292 148.31 206.323 148.271 206.354 148.231C206.441 148.119 206.527 148.008 206.637 147.912L206.642 147.911L249.819 110.323C250.365 109.847 251.027 109.523 251.739 109.384C252.45 109.244 253.185 109.294 253.871 109.527L308.056 127.995L308.066 127.993C308.196 128.043 308.316 128.108 308.435 128.173C308.483 128.199 308.531 128.225 308.58 128.25C308.63 128.275 308.682 128.299 308.734 128.323C308.838 128.37 308.942 128.417 309.034 128.476C309.153 128.559 309.255 128.656 309.357 128.754C309.401 128.796 309.446 128.839 309.493 128.881C309.536 128.922 309.583 128.96 309.631 128.998C309.704 129.056 309.778 129.115 309.837 129.187C309.959 129.327 310.051 129.48 310.145 129.634C310.171 129.677 310.197 129.72 310.224 129.763C310.251 129.809 310.283 129.853 310.315 129.896C310.358 129.955 310.402 130.013 310.433 130.08C310.594 130.407 310.712 130.753 310.783 131.111L331.235 235.255L367.214 203.931L356.758 150.691C356.689 150.337 356.669 149.967 356.693 149.61C356.7 149.538 356.716 149.47 356.733 149.402C356.746 149.347 356.759 149.293 356.767 149.237C356.775 149.192 356.783 149.146 356.79 149.1C356.82 148.917 356.849 148.733 356.907 148.558C356.937 148.47 356.982 148.389 357.026 148.308C357.056 148.254 357.085 148.2 357.11 148.144C357.136 148.09 357.161 148.036 357.185 147.983C357.244 147.851 357.302 147.722 357.383 147.601C357.445 147.508 357.524 147.426 357.602 147.344C357.641 147.303 357.681 147.262 357.718 147.22C357.758 147.173 357.795 147.126 357.832 147.079C357.915 146.974 357.996 146.871 358.095 146.783L358.1 146.782L388.522 120.3C387.781 124.975 386.728 129.547 385.385 133.994L368.947 148.303L383.07 153.115C383.453 156.369 384.227 159.574 385.375 162.635L385.214 162.58L366.252 156.118L375.329 202.337L401.519 211.262L420.162 217.617C423.838 227.768 426.124 238.584 426.792 249.836L423.236 231.729L402.683 249.496L343.986 300.208L353.154 346.892L423.288 285.84C421.894 291.187 420.125 296.382 418.011 301.396ZM245.701 314.627L214.795 157.253L233.755 163.704L259.947 172.639L281.316 281.454L281.318 281.464C281.338 281.565 281.376 281.663 281.414 281.761C281.433 281.81 281.452 281.859 281.469 281.908C281.481 281.947 281.492 281.987 281.504 282.027C281.55 282.183 281.596 282.339 281.666 282.485L281.667 282.49C281.717 282.596 281.786 282.688 281.856 282.78C281.888 282.822 281.919 282.865 281.949 282.908C281.972 282.944 281.994 282.982 282.017 283.019C282.092 283.144 282.168 283.269 282.261 283.373L282.27 283.387C282.337 283.465 282.419 283.531 282.502 283.598C282.552 283.638 282.603 283.678 282.651 283.722C282.697 283.762 282.742 283.804 282.786 283.847C282.875 283.931 282.965 284.015 283.069 284.082L283.082 284.095C283.164 284.151 283.257 284.192 283.351 284.233C283.41 284.258 283.468 284.284 283.525 284.314C283.584 284.342 283.641 284.374 283.698 284.405C283.805 284.464 283.912 284.523 284.026 284.562L284.048 284.569L284.065 284.576L335.872 301.806L345.038 348.481L245.701 314.627ZM253.455 118.124L253.46 118.12L253.449 118.122L253.455 118.124ZM217.484 149.433L253.455 118.124L298.589 133.5L262.62 164.817L217.484 149.433ZM324.037 241.519L303.168 259.686L288.054 272.844L268.062 171.045L288.936 152.873L304.046 139.72L324.037 241.519ZM391.362 248.347L338.545 293.99L293.555 279.024L331.273 246.19L372.657 210.164L417.764 225.538L391.362 248.347Z" fill="#F3D5D3" fill-opacity="0.4"/>
</g>
<defs>
<filter id="filter0_d" x="0" y="0" width="431" height="380.962" filterUnits="userSpaceOnUse" color-interpolation-filters="sRGB">
<feFlood flood-opacity="0" result="BackgroundImageFix"/>
<feColorMatrix in="SourceAlpha" type="matrix" values="0 0 0 0 0 0 0 0 0 0 0 0 0 0 0 0 0 0 127 0" result="hardAlpha"/>
<feOffset dy="4"/>
<feGaussianBlur stdDeviation="2"/>
<feComposite in2="hardAlpha" operator="out"/>
<feColorMatrix type="matrix" values="0 0 0 0 0 0 0 0 0 0 0 0 0 0 0 0 0 0 0.25 0"/>
<feBlend mode="normal" in2="BackgroundImageFix" result="effect1_dropShadow"/>
<feBlend mode="normal" in="SourceGraphic" in2="effect1_dropShadow" result="shape"/>
</filter>
<linearGradient id="paint0_linear" x1="380.888" y1="49.564" x2="30.4375" y2="326.85" gradientUnits="userSpaceOnUse">
<stop stop-color="#F06A6A"/>
<stop offset="1" stop-color="#E74C4C"/>
</linearGradient>
</defs>
</svg>
