<svg width="178" height="178" viewBox="0 0 178 178" fill="none" xmlns="http://www.w3.org/2000/svg">
<rect width="178" height="178" fill="#4B4B4B"/>
<path d="M89.1172 84H86.1875L80.4844 74.6445V84H77.5547V69.7812H80.4844L86.1973 79.1562V69.7812H89.1172V84ZM91.0508 78.6191C91.0508 77.571 91.2526 76.6367 91.6562 75.8164C92.0599 74.9961 92.6393 74.3613 93.3945 73.9121C94.1562 73.4629 95.0384 73.2383 96.041 73.2383C97.4668 73.2383 98.6289 73.6745 99.5273 74.5469C100.432 75.4193 100.937 76.6042 101.041 78.1016L101.061 78.8242C101.061 80.4453 100.608 81.7474 99.7031 82.7305C98.7982 83.707 97.584 84.1953 96.0605 84.1953C94.5371 84.1953 93.3197 83.707 92.4082 82.7305C91.5033 81.7539 91.0508 80.4258 91.0508 78.7461V78.6191ZM93.873 78.8242C93.873 79.8268 94.0618 80.5951 94.4395 81.1289C94.8171 81.6562 95.3574 81.9199 96.0605 81.9199C96.7441 81.9199 97.278 81.6595 97.6621 81.1387C98.0462 80.6113 98.2383 79.7715 98.2383 78.6191C98.2383 77.6361 98.0462 76.8743 97.6621 76.334C97.278 75.7936 96.7376 75.5234 96.041 75.5234C95.3509 75.5234 94.8171 75.7936 94.4395 76.334C94.0618 76.8678 93.873 77.6979 93.873 78.8242ZM64.5859 101.814C64.5859 103.442 64.2148 104.747 63.4727 105.73C62.737 106.707 61.7409 107.195 60.4844 107.195C59.4167 107.195 58.554 106.824 57.8965 106.082V111.062H55.0742V96.4336H57.6914L57.7891 97.4688C58.4727 96.6484 59.3646 96.2383 60.4648 96.2383C61.7669 96.2383 62.7793 96.7201 63.502 97.6836C64.2246 98.6471 64.5859 99.9753 64.5859 101.668V101.814ZM61.7637 101.609C61.7637 100.626 61.5879 99.8678 61.2363 99.334C60.8913 98.8001 60.3867 98.5332 59.7227 98.5332C58.8372 98.5332 58.2285 98.8717 57.8965 99.5488V103.875C58.2415 104.572 58.8568 104.92 59.7422 104.92C61.0898 104.92 61.7637 103.816 61.7637 101.609ZM72.2812 99.0801C71.8971 99.028 71.5586 99.002 71.2656 99.002C70.1979 99.002 69.498 99.3633 69.166 100.086V107H66.3438V96.4336H69.0098L69.0879 97.6934C69.6543 96.7233 70.4388 96.2383 71.4414 96.2383C71.7539 96.2383 72.0469 96.2806 72.3203 96.3652L72.2812 99.0801ZM78.3164 107.195C76.7669 107.195 75.5039 106.72 74.5273 105.77C73.5573 104.819 73.0723 103.553 73.0723 101.971V101.697C73.0723 100.636 73.2773 99.6888 73.6875 98.8555C74.0977 98.0156 74.6771 97.3711 75.4258 96.9219C76.181 96.4661 77.0404 96.2383 78.0039 96.2383C79.4492 96.2383 80.5853 96.694 81.4121 97.6055C82.2454 98.5169 82.6621 99.8092 82.6621 101.482V102.635H75.9336C76.0247 103.325 76.2982 103.878 76.7539 104.295C77.2161 104.712 77.7988 104.92 78.502 104.92C79.5892 104.92 80.4388 104.526 81.0508 103.738L82.4375 105.291C82.0143 105.89 81.4414 106.359 80.7188 106.697C79.9961 107.029 79.1953 107.195 78.3164 107.195ZM77.9941 98.5234C77.4342 98.5234 76.9785 98.7122 76.627 99.0898C76.2819 99.4674 76.0605 100.008 75.9629 100.711H79.8887V100.486C79.8757 99.8613 79.7064 99.3796 79.3809 99.041C79.0553 98.696 78.5931 98.5234 77.9941 98.5234ZM88.0918 103.553L90.0547 96.4336H93.0039L89.4395 107H86.7441L83.1797 96.4336H86.1289L88.0918 103.553ZM97.2324 107H94.4004V96.4336H97.2324V107ZM94.2344 93.6992C94.2344 93.276 94.3743 92.9277 94.6543 92.6543C94.9408 92.3809 95.3281 92.2441 95.8164 92.2441C96.2982 92.2441 96.6823 92.3809 96.9688 92.6543C97.2552 92.9277 97.3984 93.276 97.3984 93.6992C97.3984 94.1289 97.252 94.4805 96.959 94.7539C96.6725 95.0273 96.2917 95.1641 95.8164 95.1641C95.3411 95.1641 94.957 95.0273 94.6641 94.7539C94.3776 94.4805 94.2344 94.1289 94.2344 93.6992ZM104.43 107.195C102.88 107.195 101.617 106.72 100.641 105.77C99.6706 104.819 99.1855 103.553 99.1855 101.971V101.697C99.1855 100.636 99.3906 99.6888 99.8008 98.8555C100.211 98.0156 100.79 97.3711 101.539 96.9219C102.294 96.4661 103.154 96.2383 104.117 96.2383C105.562 96.2383 106.699 96.694 107.525 97.6055C108.359 98.5169 108.775 99.8092 108.775 101.482V102.635H102.047C102.138 103.325 102.411 103.878 102.867 104.295C103.329 104.712 103.912 104.92 104.615 104.92C105.702 104.92 106.552 104.526 107.164 103.738L108.551 105.291C108.128 105.89 107.555 106.359 106.832 106.697C106.109 107.029 105.309 107.195 104.43 107.195ZM104.107 98.5234C103.548 98.5234 103.092 98.7122 102.74 99.0898C102.395 99.4674 102.174 100.008 102.076 100.711H106.002V100.486C105.989 99.8613 105.82 99.3796 105.494 99.041C105.169 98.696 104.706 98.5234 104.107 98.5234ZM119.576 103.162L120.963 96.4336H123.688L120.992 107H118.629L116.627 100.35L114.625 107H112.271L109.576 96.4336H112.301L113.678 103.152L115.611 96.4336H117.652L119.576 103.162Z" fill="#9A9A9A"/>
</svg>
