<svg width="431" height="381" viewBox="0 0 431 381" fill="none" xmlns="http://www.w3.org/2000/svg">
<g filter="url(#filter0_d)">
<path fill-rule="evenodd" clip-rule="evenodd" d="M389.811 103.906C389.811 115.173 388.017 126.022 384.7 136.182C380.24 149.843 383.722 165.738 393.821 175.961C414.336 196.727 427 225.264 427 256.76C427 320.258 375.525 371.733 312.028 371.733C296.926 371.733 282.505 368.821 269.294 363.529C255.608 358.046 238.882 361.855 225.574 368.2C219.169 371.253 212.001 372.962 204.433 372.962C192.188 372.962 180.987 368.487 172.378 361.084C161.301 351.557 146.335 343.587 131.814 345.201C127.598 345.669 123.313 345.91 118.972 345.91C55.4749 345.91 4 294.435 4 230.938C4 198.69 17.2763 169.543 38.6613 148.665C47.8728 139.672 51.6178 125.995 49.7927 113.251C49.2703 109.604 49 105.875 49 102.083C49 58.9589 83.9589 24 127.083 24C137.874 24 148.154 26.1892 157.503 30.1477C176.079 38.0126 204.659 36.0786 220.293 23.3322C238.183 8.74627 261.023 0 285.906 0C343.291 0 389.811 46.5201 389.811 103.906Z" fill="url(#paint0_linear)"/>
</g>
<mask id="mask0" style="mask-type:alpha" maskUnits="userSpaceOnUse" x="4" y="0" width="423" height="373">
<path fill-rule="evenodd" clip-rule="evenodd" d="M389.811 103.906C389.811 115.173 388.017 126.022 384.7 136.182C380.24 149.843 383.722 165.738 393.821 175.961C414.336 196.727 427 225.264 427 256.76C427 320.258 375.525 371.733 312.028 371.733C296.926 371.733 282.505 368.821 269.294 363.529C255.608 358.046 238.882 361.855 225.574 368.2C219.169 371.253 212.001 372.962 204.433 372.962C192.188 372.962 180.987 368.487 172.378 361.084C161.301 351.557 146.335 343.587 131.814 345.201C127.598 345.669 123.313 345.91 118.972 345.91C55.4749 345.91 4 294.435 4 230.938C4 198.69 17.2763 169.543 38.6613 148.665C47.8728 139.672 51.6178 125.995 49.7927 113.251C49.2703 109.604 49 105.875 49 102.083C49 58.9589 83.9589 24 127.083 24C137.874 24 148.154 26.1892 157.503 30.1477C176.079 38.0126 204.659 36.0786 220.293 23.3322C238.183 8.74627 261.023 0 285.906 0C343.291 0 389.811 46.5201 389.811 103.906Z" fill="url(#paint1_linear)"/>
</mask>
<g mask="url(#mask0)">
<path d="M385.05 290.443C383.917 289.875 382.904 289.072 382.069 288.066C381.683 287.603 381.348 287.106 381.063 286.588L258.414 296.679L248.468 175.79L414.946 162.093L421.44 241.03C425.021 241.058 428.195 243.147 429.71 246.24C430.768 245.542 431.973 245.064 433.262 244.843C434.135 244.694 435.012 244.677 435.872 244.775L426.496 130.823C425.966 124.377 420.291 119.564 413.845 120.094L242.69 134.175C236.244 134.706 231.431 140.382 231.962 146.828L244.578 300.172C245.108 306.618 250.784 311.431 257.23 310.9L384.797 300.405C383.636 298.471 383.213 296.215 383.618 293.977C383.852 292.69 384.342 291.493 385.05 290.443ZM400.284 140.974C400.088 138.59 401.861 136.498 404.245 136.302L408.562 135.946C410.946 135.75 413.037 137.524 413.233 139.908L413.636 144.801C413.832 147.184 412.058 149.276 409.674 149.472L405.358 149.827C402.974 150.023 400.883 148.25 400.686 145.866L400.284 140.974ZM380.212 142.625C380.016 140.241 381.79 138.149 384.174 137.953L388.49 137.598C390.875 137.402 392.966 139.175 393.162 141.56L393.564 146.452C393.761 148.836 391.987 150.927 389.603 151.123L385.286 151.479C382.902 151.675 380.811 149.901 380.615 147.517L380.212 142.625ZM360.14 144.276C359.944 141.892 361.718 139.8 364.101 139.604L368.418 139.249C370.802 139.053 372.894 140.827 373.09 143.211L373.492 148.103C373.688 150.487 371.915 152.579 369.531 152.775L365.214 153.13C362.831 153.326 360.739 151.553 360.543 149.169L360.14 144.276Z" fill="#C296DE" fill-opacity="0.7"/>
<path d="M452.318 276.62L450.416 269.371C450.159 268.395 449.161 267.81 448.184 268.067L441.737 269.758C440.8 267.979 439.655 266.336 438.335 264.854L442.188 259.409C442.469 259.015 442.58 258.524 442.499 258.045C442.417 257.567 442.148 257.142 441.753 256.861L435.636 252.53C435.241 252.25 434.749 252.139 434.271 252.221C433.793 252.303 433.368 252.571 433.087 252.966L429.237 258.407C427.411 257.658 425.48 257.124 423.479 256.831L422.933 250.188C422.85 249.182 421.967 248.433 420.961 248.516L413.491 249.13C412.485 249.213 411.736 250.097 411.819 251.103L412.365 257.745C410.438 258.361 408.622 259.204 406.942 260.241L402.254 255.504C401.543 254.786 400.386 254.78 399.668 255.49L394.342 260.762C393.997 261.103 393.802 261.567 393.799 262.052C393.797 262.537 393.987 263.004 394.328 263.348L399.02 268.089C397.962 269.766 397.099 271.576 396.465 273.483L389.829 272.868C388.825 272.775 387.934 273.514 387.84 274.519L387.148 281.982C387.104 282.464 387.253 282.944 387.561 283.318C387.872 283.691 388.316 283.926 388.799 283.971L395.44 284.586C395.714 286.605 396.228 288.539 396.951 290.36L391.47 294.155C391.071 294.43 390.799 294.854 390.712 295.33C390.625 295.807 390.732 296.299 391.007 296.698L395.274 302.859C395.549 303.258 395.973 303.53 396.45 303.617C396.608 303.646 396.768 303.653 396.926 303.64C397.243 303.614 397.551 303.506 397.817 303.321L403.302 299.522C404.775 300.862 406.41 302.022 408.17 302.972L406.41 309.405C406.283 309.873 406.345 310.372 406.586 310.793C406.826 311.215 407.224 311.523 407.691 311.65L414.919 313.627C415.126 313.684 415.341 313.704 415.552 313.687C415.814 313.665 416.074 313.586 416.308 313.452C416.729 313.212 417.037 312.815 417.165 312.347L418.924 305.913C419.908 305.951 420.905 305.93 421.912 305.848C422.918 305.765 423.905 305.621 424.87 305.424L427.658 311.483C427.86 311.924 428.23 312.266 428.684 312.434C428.936 312.528 429.204 312.564 429.468 312.542C429.679 312.524 429.887 312.47 430.082 312.379L436.891 309.248C437.33 309.046 437.672 308.676 437.84 308.222C438.009 307.767 437.989 307.264 437.787 306.824L434.999 300.765C436.579 299.541 438.002 298.128 439.238 296.567L445.27 299.418C445.562 299.556 445.884 299.613 446.201 299.587C446.358 299.574 446.516 299.54 446.667 299.486C447.124 299.323 447.496 298.984 447.703 298.547L450.905 291.77C451.112 291.332 451.137 290.829 450.974 290.372C450.81 289.917 450.472 289.544 450.033 289.336L444.007 286.49C444.422 284.574 444.613 282.583 444.553 280.546L451.004 278.853C451.474 278.73 451.874 278.426 452.118 278.007C452.373 277.587 452.441 277.089 452.318 276.62ZM420.695 290.99C415.162 291.445 410.307 287.328 409.851 281.794C409.396 276.261 413.514 271.405 419.047 270.95C424.58 270.495 429.436 274.612 429.891 280.146C430.347 285.679 426.229 290.535 420.695 290.99Z" fill="#C296DE" fill-opacity="0.7"/>
<path d="M321.645 237.234C321.451 234.877 319.892 232.826 317.672 232.009L297.353 224.526L316.176 213.821C318.232 212.651 319.435 210.373 319.242 208.017L319.229 207.859C319.057 205.771 317.848 203.94 315.997 202.964C314.973 202.423 313.812 202.187 312.642 202.283C311.76 202.356 310.891 202.623 310.129 203.056L280.037 220.18C277.982 221.35 276.78 223.628 276.973 225.984L277.009 226.419C277.203 228.771 278.761 230.821 280.981 231.644L313.47 243.621C314.309 243.929 315.187 244.048 316.077 243.975C317.236 243.879 318.339 243.457 319.27 242.751C320.938 241.481 321.831 239.479 321.659 237.394L321.645 237.234Z" fill="#C296DE" fill-opacity="0.7"/>
<path d="M348.38 184.417C347.11 182.948 345.198 182.167 343.264 182.326L343.108 182.339C340.452 182.557 338.264 184.448 337.663 187.04L322.303 252.61C321.868 254.502 322.365 256.506 323.634 257.974C324.903 259.442 326.816 260.224 328.75 260.065L328.906 260.052C331.561 259.834 333.748 257.943 334.348 255.352L349.706 189.787C350.147 187.895 349.651 185.888 348.38 184.417Z" fill="#C296DE" fill-opacity="0.7"/>
<path d="M391.055 211.046L358.569 199.07C357.749 198.768 356.849 198.647 355.967 198.719C354.798 198.815 353.691 199.237 352.769 199.937C351.099 201.205 350.206 203.208 350.378 205.296L350.391 205.454C350.585 207.808 352.143 209.86 354.365 210.682L374.683 218.164L355.861 228.867C353.804 230.036 352.601 232.315 352.795 234.672L352.808 234.831C352.979 236.917 354.188 238.745 356.041 239.726C357.072 240.27 358.23 240.507 359.391 240.411C360.28 240.338 361.125 240.077 361.909 239.634L392.002 222.508C394.056 221.336 395.257 219.059 395.064 216.706L395.028 216.271C394.833 213.915 393.274 211.864 391.055 211.046Z" fill="#C296DE" fill-opacity="0.7"/>
</g>
<defs>
<filter id="filter0_d" x="0" y="0" width="431" height="380.962" filterUnits="userSpaceOnUse" color-interpolation-filters="sRGB">
<feFlood flood-opacity="0" result="BackgroundImageFix"/>
<feColorMatrix in="SourceAlpha" type="matrix" values="0 0 0 0 0 0 0 0 0 0 0 0 0 0 0 0 0 0 127 0" result="hardAlpha"/>
<feOffset dy="4"/>
<feGaussianBlur stdDeviation="2"/>
<feComposite in2="hardAlpha" operator="out"/>
<feColorMatrix type="matrix" values="0 0 0 0 0 0 0 0 0 0 0 0 0 0 0 0 0 0 0.25 0"/>
<feBlend mode="normal" in2="BackgroundImageFix" result="effect1_dropShadow"/>
<feBlend mode="normal" in="SourceGraphic" in2="effect1_dropShadow" result="shape"/>
</filter>
<linearGradient id="paint0_linear" x1="380.888" y1="49.564" x2="30.4375" y2="326.85" gradientUnits="userSpaceOnUse">
<stop stop-color="#A465CB"/>
<stop offset="1" stop-color="#8344A9"/>
</linearGradient>
<linearGradient id="paint1_linear" x1="380.888" y1="49.564" x2="30.4375" y2="326.85" gradientUnits="userSpaceOnUse">
<stop stop-color="#A465CB"/>
<stop offset="1" stop-color="#8344A9"/>
</linearGradient>
</defs>
</svg>
