<svg width="68" height="67" viewBox="0 0 68 67" fill="none" xmlns="http://www.w3.org/2000/svg">
<path d="M31.3829 2.66816C33.2221 1.62217 35.4762 1.62217 37.3153 2.66816L60.3272 15.7558C62.2026 16.8224 63.361 18.8138 63.361 20.9713V46.9911C63.361 49.1486 62.2026 51.14 60.3272 52.2066L37.3153 65.2942C35.4762 66.3402 33.2221 66.3402 31.3829 65.2942L8.37104 52.2066C6.49563 51.14 5.33727 49.1486 5.33727 46.9911V20.9713C5.33727 18.8138 6.49563 16.8224 8.37104 15.7558L31.3829 2.66816Z" fill="url(#paint0_linear)"/>
<path d="M50.6269 18.9919L17.4551 32.4106V34.3502L26.9559 37.2832L29.9606 46.9229L32.3592 46.9225L36.2263 42.9659L44.3898 48.962L45.9788 48.3575L51.9963 20.1412L50.6269 18.9919ZM44.3258 46.4035L33.5743 38.5065L32.376 40.1378L34.5787 41.7557L31.4499 44.8986L28.9948 37.0223L43.2151 28.5317L42.1775 26.7938L27.7479 35.4093L20.7671 33.2543L49.6191 21.583L44.3258 46.4035Z" fill="#D1D1D1"/>
<defs>
<linearGradient id="paint0_linear" x1="-18.2325" y1="85.6016" x2="66.7235" y2="10.0886" gradientUnits="userSpaceOnUse">
<stop stop-color="#2E9B8E"/>
<stop offset="1" stop-color="#8E328B"/>
</linearGradient>
</defs>
</svg>
